{"title":"Celluloid 2013 BRRip 480p x264 Malayalam ESubs - ViZNU [P2PDL]Ce","uid":8608757,"size":479222502,"categoryP":"video","categoryS":"movies","magnet":"?xt=urn:btih:9089be6e14c80e7e74cd3ae0aa3c4c6bf3b49648&amp;dn=Celluloid+2013+BRRip+480p+x264+Malayalam+ESubs+-+ViZNU+%5BP2PDL%5DCe&amp;tr=udp%3A%2F%2Ftracker.openbittorrent.com%3A80&amp;tr=udp%3A%2F%2Fopen.demonii.com%3A1337&amp;tr=udp%3A%2F%2Ftracker.coppersurfer.tk%3A6969&amp;tr=udp%3A%2F%2Fexodus.desync.com%3A6969","seeders":2,"leechers":0,"uploader":"ValidusVyto","files":-1,"time":1372083049,"description":"_______ Visit us at our Semi Public Bittorrent Community ________\n  &lt;a href=&quot;\nhttp://p2pdl.com&quot; rel=&quot;nofollow&quot; target=&quot;_NEW&quot;&gt;\nhttp://p2pdl.com&lt;/a&gt;  _____________________________ &lt;a href=&quot; http://p2pdl.com&quot; rel=&quot;nofollow&quot; target=&quot;_NEW&quot;&gt; http://p2pdl.com&lt;/a&gt;\n\n\nCelluloid 2013 BRRip 480p x264 Malayalam ESubs - ViZNU\n\n\nGenre: Biography\nPlot: The story of J C Daniel, who made the first ever Malayalam film 'Vigathakumaran'\nin 1928, resulting in his exile and eventual downfall.   \nDirector: Kamal\t\nStars: Mamta Mohandas, Sreenivasan, Prithviraj Sukumaran.\nRated: N/a\n\n\nInfo: &lt;a href=&quot;\nhttp://www.imdb.com/title/tt2717168/&quot; rel=&quot;nofollow&quot; target=&quot;_NEW&quot;&gt;\nhttp://www.imdb.com/title/tt2717168/&lt;/a&gt;\n\nTrailer:\n\n\nFormat                         : MPEG-4\nFile size                      : 452 MiB\nDuration                       : 2h 7mn\nOverall bit rate               : 495 Kbps\nSource                         : 1080p Bluray TmG\n\nVideo\nFormat                         : AVC\nWidth                          : 720 pixels\nHeight                         : 304 pixels\nDisplay aspect ratio           : 2.35:1\nFrame rate mode                : Constant\nFrame rate                     : 24.000 fps\nStream size                    : 412 MiB (91%)\nWriting library                : x264 core 130 r2273\n\nAudio\nFormat                         : AAC\nBit rate mode                  : Variable\nBit rate                       : 39.9 Kbps\nChannel(s)                     : 2 channels\nChannel positions              : Front: L R\nSampling rate                  : 48.0 KHz\nStream size                    : 36.4 MiB (8%)\nLanguage                       : Malayalam\n\nSubtitle                       : Yes(English)\n\n &lt;a href=&quot;\nhttp://ultraimg.com/images/hSZbL.png&quot; rel=&quot;nofollow&quot; target=&quot;_NEW&quot;&gt;\nhttp://ultraimg.com/images/hSZbL.png&lt;/a&gt; &lt;a href=&quot;\nhttp://ultraimg.com/images/oe1Ft.png&quot; rel=&quot;nofollow&quot; target=&quot;_NEW&quot;&gt;\nhttp://ultraimg.com/images/oe1Ft.png&lt;/a&gt; &lt;a href=&quot;\nhttp://ultraimg.com/images/yIsgM.png&quot; rel=&quot;nofollow&quot; target=&quot;_NEW&quot;&gt;\nhttp://ultraimg.com/images/yIsgM.png&lt;/a&gt; &lt;a href=&quot;\nhttp://ultraimg.com/images/TK8cq.png&quot; rel=&quot;nofollow&quot; target=&quot;_NEW&quot;&gt;\nhttp://ultraimg.com/images/TK8cq.png&lt;/a&gt; &lt;a href=&quot;\nhttp://ultraimg.com/images/Qmajv.png&quot; rel=&quot;nofollow&quot; target=&quot;_NEW&quot;&gt;\nhttp://ultraimg.com/images/Qmajv.png&lt;/a&gt; &lt;a href=&quot;\nhttp://ultraimg.com/images/D6RAd.png&quot; rel=&quot;nofollow&quot; target=&quot;_NEW&quot;&gt;\nhttp://ultraimg.com/images/D6RAd.png&lt;/a&gt; &lt;a href=&quot;\nhttp://ultraimg.com/images/AvJZE.png&quot; rel=&quot;nofollow&quot; target=&quot;_NEW&quot;&gt;\nhttp://ultraimg.com/images/AvJZE.png&lt;/a&gt; &lt;a href=&quot;\nhttp://ultraimg.com/images/IvWac.png&quot; rel=&quot;nofollow&quot; target=&quot;_NEW&quot;&gt;\nhttp://ultraimg.com/images/IvWac.png&lt;/a&gt;\n\n\n----------------------------------------------------------------------------------------------------\n\n\nEncoded using revolutionary 10bit encoding, which enables us to provide you more crispier \nand sharper images at small sizes, just make sure you follow our instructions without a fault.\nRecommend to you to use latest version of VLC player. Install K-Lite Codec Pack or shark007 codecs\nin case of any kind of problem in playback (For non-VLC Media Player users). Alternatively, install\nCore AVC codecs, the fastest decoder that there is coupled with Community Center Codec Pack and play\non Windows Media Player Classic. Check sample to be sure.\nEnjoy!\n\nEncoder Notes:Looking For Early Access To Anything You Can Provide DVDScr, R5, DVDR, BluRay, Direct\nAudio, Music Releases and Seedboxes. We require dedicated servers, so as to do more \nand fast releases of movies.\nIf You Got anything to offer please contact us at &quot;&lt;a class=&quot;__cf_email__&quot; href=&quot;/cdn-cgi/l/email-protection&quot; data-cfemail=&quot;d5b6babba1b4b6a195a5e7a5b1b9fbb6bab8&quot;&gt;[email&amp;#160;protected]&lt;/a&gt;&lt;script cf-hash='f9e31' type=&quot;text/javascript&quot;&gt;\n/* &lt;![CDATA[ */!function(){try{var t=&quot;currentScript&quot;in document?document.currentScript:function(){for(var t=document.getElementsByTagName(&quot;script&quot;),e=t.length;e--;)if(t[e].getAttribute(&quot;cf-hash&quot;))return t[e]}();if(t&amp;&amp;t.previousSibling){var e,r,n,i,c=t.previousSibling,a=c.getAttribute(&quot;data-cfemail&quot;);if(a){for(e=&quot;&quot;,r=parseInt(a.substr(0,2),16),n=2;a.length-n;n+=2)i=parseInt(a.substr(n,2),16)^r,e+=String.fromCharCode(i);e=document.createTextNode(e),c.parentNode.replaceChild(e,c)}}}catch(u){}}();/* ]]&gt; */&lt;/script&gt;&quot;.\n\nFace book Fan Page:   &lt;a href=&quot;\nhttp://fbl.me/BC&quot; rel=&quot;nofollow&quot; target=&quot;_NEW&quot;&gt;\nhttp://fbl.me/BC&lt;/a&gt;","torrent":{"xt":"urn:btih:9089be6e14c80e7e74cd3ae0aa3c4c6bf3b49648","amp;dn":"Celluloid+2013+BRRip+480p+x264+Malayalam+ESubs+-+ViZNU+%5BP2PDL%5DCe","amp;tr":["udp%3A%2F%2Ftracker.openbittorrent.com%3A80","udp%3A%2F%2Fopen.demonii.com%3A1337","udp%3A%2F%2Ftracker.coppersurfer.tk%3A6969","udp%3A%2F%2Fexodus.desync.com%3A6969"],"infoHash":"9089be6e14c80e7e74cd3ae0aa3c4c6bf3b49648","infoHashBuffer":{"type":"Buffer","data":[144,137,190,110,20,200,14,126,116,205,58,224,170,60,76,107,243,180,150,72]},"announce":[],"urlList":[]}}